
<svg xmlns="http://www.w3.org/2000/svg" viewBox="0 0 333.418 127.034"><defs><style>.a{fill:#1c2635;}.b{fill:#223552;}.c{fill:#0c1624;}</style></defs><g transform="translate(-586 -272.9)"><g transform="translate(586 275.41)"><path class="a" d="M636.789,376.7H586V351.244L635.833,275h29.04v74.332h11.95V377.3H665.112V394.5H636.789Zm.359-26.172V316.588l-21.989,33.939Z" transform="translate(-586 -275)"/></g><g transform="translate(828.594 275.41)"><path class="a" d="M839.79,376.7H789V351.244L838.834,275h29.04v74.332h11.95V377.3H868.112V394.5H839.79Zm.359-26.172V316.588l-21.989,33.939Z" transform="translate(-789 -275)"/></g><path class="b" d="M795.152,302.3a63.154,63.154,0,0,0-19.6-19.6,62.815,62.815,0,0,0-33.7-9.8h-29.4a5.323,5.323,0,0,0-3.466,1.434,5.082,5.082,0,0,0-1.434,3.466,4.8,4.8,0,0,0,2.032,3.944,4.863,4.863,0,0,0,2.868.956h5.856a5.011,5.011,0,0,1,5.019,3.944,4.878,4.878,0,0,1-1.315,4.422,5.082,5.082,0,0,1-3.466,1.434h-8.485a4.9,4.9,0,0,0-4.9,4.9,4.922,4.922,0,0,0,4.9,4.9h24.02a5.078,5.078,0,0,1,5.139,4.541,4.7,4.7,0,0,1-1.434,3.7,5.082,5.082,0,0,1-3.466,1.434H689.987a4.9,4.9,0,0,0-4.9,4.9,4.922,4.922,0,0,0,4.9,4.9h6.334a5.028,5.028,0,0,1,5.139,5.139,5.339,5.339,0,0,1-1.434,3.227,5.083,5.083,0,0,1-3.466,1.434H681.622a3.271,3.271,0,0,0-3.227,3.107v1.793a33.645,33.645,0,0,0,.239,4.9,54,54,0,0,0,1.554,9.8,59.463,59.463,0,0,0,1.912,6.573,4.745,4.745,0,0,0,4.422,3.107h22.586a4.846,4.846,0,0,1,4.9,4.9,4.9,4.9,0,0,1-4.9,4.9H677.2a4.907,4.907,0,0,0-4.9,4.661,5.177,5.177,0,0,0,5.139,5.139h18.643a67.843,67.843,0,0,0,11.951,9.8h0a62.416,62.416,0,0,0,33.7,9.68A63.545,63.545,0,0,0,795.152,302.3Z" transform="translate(16.832)"/><circle class="c" cx="18.882" cy="18.882" r="18.882" transform="translate(763.584 292.14)"/><circle class="a" cx="5.497" cy="5.497" r="5.497" transform="translate(774.817 306.959)"/><path class="a" d="M804.055,326.429v2.629H677.5V323.8H804.055Z" transform="translate(17.847 9.928)"/><path class="c" d="M804.055,323.8v5.258H677.5V323.8H804.055Z" transform="translate(17.847 9.928)"/></g></svg>
